<svg id="Layer_1" data-name="Layer 1" xmlns="http://www.w3.org/2000/svg" viewBox="0 0 1000 345.09"><defs><style>.cls-1,.cls-2{fill:#000200;}.cls-1{fill-rule:evenodd;}</style></defs><title>logo__horizontal-preto</title><path class="cls-1" d="M195.87,18.3l.11.11.11-.11v.06c.59-.63,1.14-1.28,1.79-1.85,1.41-1.25,2.84-2.48,4.33-3.64,3.88-3,13.54-9.79,13.6-9.72C214.32,6.1,212.76,9,211.37,12s-2.07,6.43-3.29,9.9c.44-.32,3.62-3.15,5.06-4.37,3.51-2.94,7-5.85,10.56-8.77A113.51,113.51,0,0,1,237.25,0c-4.33,7.64-7.29,15.4-6.61,24.43.41-.24,5.36-3.37,7.61-4.51a30.76,30.76,0,0,1,7.16-2.54c-1.26,2.18-1.2,5.42,0,9.64a22,22,0,0,0,2.23,5.32c-1.61-6.17-1.86-11.14,1.43-13.67a16.2,16.2,0,0,0,.5,7.2c0-6.82,3.76-8.81,9.11-8.82a71.37,71.37,0,0,1,8.16,2c-19.44,3.93,4,15.45,9.34,19.54,5.05,3.86,9.57,8.08,12.8,13.41.9,1.49,2,2.86,3.22,4.51C300.55,45.9,266.46,22.8,264.8,25c.38-1.75,17.44,3,27.08,10,2,1.45,3.88,2.8,5.6,4.1a2,2,0,0,0-.41-.08c8.7,7,14.71,15.08,11.92,28.11a26.94,26.94,0,0,0,3-10.67c3,7.71,1,15.21-3,23a19.23,19.23,0,0,0,4.38-5.77c3-5.47,4.16-10.75,3.18-15.86a80.77,80.77,0,0,1,9.88,14.74c.76,1.55,1.47,3.13,2.22,4.68.15,0,.8-6.88-.34-9.89-1.44-3.81-6.19-11.46-6.38-11.84a90.14,90.14,0,0,1,9.1,5.76,25.1,25.1,0,0,1,10.63,17.86c.62,5.57.44,11.2.57,16.81,0,1.57-.22,3.13-.38,5.08a24.69,24.69,0,0,0,6.85-8.22C350.56,89,353,80.06,353.3,79.3a26.61,26.61,0,0,1,2.47,10.88c.12,6.89-5,19.31-6.39,22.63.65.68,1.3,1.37,1.91,2.07C360.07,118,362.5,119.51,374,134a64.68,64.68,0,0,1,4.69,7.08,65.53,65.53,0,0,1,6.22,8.89c.28.33.58.68.9,1a39.27,39.27,0,0,0-4-1.43A30,30,0,0,0,371.06,148c11.54,4,19.89,9.48,20.89,20-2.79-3.29-6.82-5.85-12.18-7.7,11,12.85,2,35.35-11.13,43.62.17,7.33,6.4,7.06,4,29.62a13.43,13.43,0,0,1-2.75,7c-.82,1.05-1.65,2.07-2.5,3.12-.24-6.38-2.86-12.56-7.62-18.6a26.22,26.22,0,0,0-7-6.69c6.91,9.47,11.17,19,8.92,29.81a36.23,36.23,0,0,0-6.31-13.47c2.88,7.4,3.26,13.88,1.91,19.78-2.34,2.24-4.74,4.43-7.13,6.62-3.35,3.09-6.8,6.06-10.26,9-1.19,1-2.56,1.87-3.84,2.8a34.14,34.14,0,0,1,1.37-4.88,28.08,28.08,0,0,0,.86-17.46c-.51,8.06-1.38,9.69-4.14,12.52,1.07-4.58.56-6.39-1.55-10.64a23.43,23.43,0,0,1-1,10.5A25.38,25.38,0,0,1,327,272.1a79.74,79.74,0,0,1-10.28,9.81,75.4,75.4,0,0,0-13.05,13.2,32.3,32.3,0,0,0-6.13,19.53c0,.65.08,1.31.12,2-.47-.11-7.4-7.35-9.7-11.29-1.92-3.24-3.48-6.57-3.56-10.27,1.45-53.59-4.34,35.76-7.91-3.28a42.52,42.52,0,0,1-5.26,11.2,43.34,43.34,0,0,1-13,12.13c-6,3.65-12.09,7.24-18.13,10.84-.79.48-1.64.86-2.46,1.29,0-.5,3.4-8,4.88-11.39,2-4.55,4-9.09,5.05-13.87,1.12-5.07,2.45-10.15,1.69-15.35a28.29,28.29,0,0,0-1.33-5.35,3.55,3.55,0,0,0-3.45-2.18,3.48,3.48,0,0,0-3.17,2.66,6.65,6.65,0,0,0-.23,1.6,54.69,54.69,0,0,1-1,12,23.66,23.66,0,0,1-5,10.61c-4.21,4.93-8.58,9.8-13.21,14.45C215.6,326.75,209,332.82,202.56,339c-2.15,2.06-4.37,4.06-6.55,6.1l0,0,0,0c-2.2-2-4.4-4-6.55-6.1-6.46-6.17-13.06-12.24-19.32-18.55-4.63-4.65-9-9.52-13.22-14.45a23.74,23.74,0,0,1-5-10.61,54.09,54.09,0,0,1-1-12,7.17,7.17,0,0,0-.22-1.6,3.52,3.52,0,0,0-3.18-2.66,3.59,3.59,0,0,0-3.47,2.18,29,29,0,0,0-1.32,5.35c-.75,5.2.58,10.28,1.69,15.35,1.06,4.78,3.08,9.32,5.06,13.87,1.48,3.43,4.92,10.89,4.87,11.39-.81-.43-1.68-.81-2.45-1.29-6-3.6-12.12-7.19-18.12-10.84a42.76,42.76,0,0,1-13-12.13,43.26,43.26,0,0,1-5.29-11.2c-3.57,39-9.36-50.31-7.9,3.28-.08,3.7-1.65,7-3.54,10.27-2.33,3.94-9.25,11.18-9.73,11.29.05-.66.14-1.32.13-2a32.12,32.12,0,0,0-6.14-19.53,74.58,74.58,0,0,0-13-13.2A79.19,79.19,0,0,1,65,272.1,25.2,25.2,0,0,1,60.37,263a23,23,0,0,1-1-10.5c-2.14,4.25-2.63,6.06-1.55,10.64-2.77-2.83-3.64-4.46-4.15-12.52a28.22,28.22,0,0,0,.84,17.46A30.68,30.68,0,0,1,55.91,273c-1.29-.93-2.67-1.78-3.86-2.8-3.46-3-6.91-5.94-10.24-9-2.41-2.19-4.79-4.38-7.13-6.62-1.35-5.9-1-12.38,1.91-19.78a35.92,35.92,0,0,0-6.31,13.47c-2.26-10.85,2-20.34,8.92-29.81a25.83,25.83,0,0,0-7.05,6.69c-4.76,6-7.37,12.22-7.62,18.6-.84-1.05-1.68-2.07-2.5-3.12a13.33,13.33,0,0,1-2.74-7c-2.37-22.56,3.86-22.29,4-29.62-13.11-8.27-22.1-30.77-11.14-43.62C6.82,162.16,2.8,164.72,0,168c1-10.52,9.36-16,20.9-20a30.17,30.17,0,0,0-10.75,1.51,39.74,39.74,0,0,0-4,1.43c.3-.35.6-.7.9-1A64.65,64.65,0,0,1,13.27,141,61.81,61.81,0,0,1,18,134c11.51-14.44,13.94-15.91,22.7-19.07.64-.7,1.27-1.39,1.93-2.07-1.42-3.32-6.53-15.74-6.4-22.63A26.79,26.79,0,0,1,38.66,79.3c.25.76,2.74,9.65,4.54,13.46A24.84,24.84,0,0,0,50.06,101c-.16-2-.41-3.51-.38-5.08.11-5.61,0-11.24.56-16.81A25.15,25.15,0,0,1,60.86,61.23,91.79,91.79,0,0,1,70,55.47c-.21.38-5,8-6.41,11.84-1.12,3-.47,9.84-.31,9.89.72-1.55,1.43-3.13,2.19-4.68a79.18,79.18,0,0,1,9.35-14.06c-.76,4.9.41,10,3.3,15.18a19.57,19.57,0,0,0,4.38,5.77c-3.95-7.81-5.94-15.31-3-23a26.92,26.92,0,0,0,3,10.67c-2.64-12.33,2.61-20.25,10.56-27,2.11-1.61,4.4-3.29,7-5.14,9.66-7,26.73-11.73,27.1-10-1.66-2.15-35.75,21-27.43,31.52,1.19-1.65,2.31-3,3.23-4.51,3.22-5.33,7.74-9.55,12.77-13.41,5.35-4.09,28.78-15.61,9.35-19.54a72,72,0,0,1,8.16-2c5.36,0,9.09,2,9.12,8.82a16.37,16.37,0,0,0,.51-7.2c3.29,2.53,3,7.5,1.4,13.67A21.2,21.2,0,0,0,146.5,27c1.25-4.22,1.32-7.46.05-9.64a30.76,30.76,0,0,1,7.16,2.54c2.25,1.14,7.2,4.27,7.59,4.51C162,15.4,159,7.64,154.71,0a114.34,114.34,0,0,1,13.55,8.78c3.51,2.92,7.05,5.83,10.55,8.77,1.44,1.22,4.62,4.05,5.07,4.37-1.23-3.47-1.88-6.83-3.3-9.9s-3-5.92-4.43-8.87c0-.07,9.73,6.76,13.6,9.72,1.49,1.16,2.91,2.39,4.33,3.64.64.57,1.21,1.22,1.79,1.85ZM306.15,126.79c5.85,1.75,11.82,3,16.25,7,4.81,4.32,6.66,5.82,11.8,6.6,4.74.74,4.73,1.07,8.76,3.78-10.11-11.07-15.5-16.24-36.81-17.33Zm5.71,32.14h0q33.81-9.87,55.37-2.37-23.6-13-55.37,2.37Zm27.41-12.3h0l-.8,0a213.74,213.74,0,0,0-23.83,6.07q4.61-7,24.63-6Zm-52.1-25h0c3.62-4.82,14.38-10.84,22.69-7.27q-8.94-7.16-22.13-4.68,32-22.41,67.42,18.12,4.65,4,5.17,8.81a15.78,15.78,0,0,1-2.09,7.29c1,.84,2,1.71,3,2.58q-20.5-6.51-29.57-20.73,2.77,12.69,28.8,22.21a36.11,36.11,0,0,0-18-.08c14.36.57,23.56,1.82,31.77,12.5,3.62,4.71,7.84,11.19.85,9.37a39.49,39.49,0,0,1-13.41-6c-.85-.64-2.89-2.33-3.93-1.43-2.09,1.79-.78,3.24.65,6.14,2.43,5,8.22,9.23,5.17,14.94-2,3.75-4.49,2.42-8.49,1.72q-19.49-3.36-31.08-16-.8,6.74,7.74,14.83-19.89-7.23-30,4.63c-10.31,9.19-25,43.17-13.25,56.12,2.21,1.87,3,3.85,2.4,5.95a2.9,2.9,0,0,0,2.07-2.4c1.11,1.2.87,2.92-.69,5.2,3.18-1.12,2.59-3.62,3.87-3.42,1.8.3,2.56,2.83,1.57,4.3,2.95-1.7.33-4.87,4.2-5-.46.43,0,1.88.84,3.35a3.85,3.85,0,0,1,2-3.68,27,27,0,0,1-2.86,9.28c.25-5.48-1.53-6.24-3.84-.95q-3.17,7.26-6.8,10.77c1.37-3.24,1.79-5.56,1.26-6.91q-12.69,7.38-26.13,6c4.34-.77,7.57-1.94,9.66-3.53-11.1,1.36-18.68-2.51-25-9.45,14,4.51,19.62-11.62,23-26.27,3.11-13.82,18.37-43.18,9.26-46.26,9.14-2.55,16.73-15.15,15.28-20.51-12.27,16-17.14-1.63,2.76-7-11-6.45-22.34-20.6-7.54-29.87a11.5,11.5,0,0,1,7.67-1.71c-.93-3-6.8-4.25-12.84-.11-.44-.28-.89-.55-1.33-.84Zm48.67,65.33a65.44,65.44,0,0,1-5,20.84c4.64-2.56,19.61-17.35,10.38-20.21,0,2.23-1.77,6.32-5.41,12.24,2.86-5.95,4.05-10.19,3.53-12.67a19.13,19.13,0,0,0-3.47-.2Zm-46.12,49.38c-1.57-2.69-2.91-7.39-2.75-13.06-5.49,30,30.12,22.31,16.77,19.54-1.66-.31-4.12-.3-5.8-.73s-2.2-1.73-4.05-2.67c-2.27-1.15-2.64-.44-4.17-3.08ZM303.4,239c-1.43-.83-.76-.87-2.58-.92-2.33-.06-2.33-2.85-3.77-1.17a14.35,14.35,0,0,0,9.07,3.91c.06-3-1.32-1-2.72-1.82Zm-7-36.56c-2.67,5.86-2.18,18.85.14,20.55s6.21-3.36,9.19-2.32-7.48,26.9,4.47,5.08c6-11,7.61-17.67,6.3-20.18-1.11-2.06-4.19-.3-8.32-4.46q1.8,6.65-2.69,17.65c1.34-4.37,4.87-21.4-4.19-20.73-2,.12-3.61,1.64-4.9,4.41Zm13.77,32.1c6.59-2.42,9.19-3.05,7.8-1a21.52,21.52,0,0,1-8.12,7.46,7.39,7.39,0,0,1-1.29-.85,16.88,16.88,0,0,0,7.79-6.34,23.44,23.44,0,0,1-8.63,5.49c-2.12-2.77.11-3.92,2.45-4.76Zm-16-5.81c7.78-4.82,10.93-6.43,9.77-3.55a25.6,25.6,0,0,1-7.68,10.86,10.24,10.24,0,0,1-1.76-.71,20,20,0,0,0,7.59-9.44,27.91,27.91,0,0,1-8.8,8.63c-2.68-2.23-1.62-4.24.88-5.79Zm76.47-39.42c4.56-4.63,7.73-8.42,8.59-14-2.5,7.35-5.54,4.33-9.46,6.65A15.19,15.19,0,0,0,366,185.5c-3,3.81-.82,2.45.88,4,2.06,1.88.05,3.62,3.78-.18Zm-12.38-.79a59.2,59.2,0,0,1-8.65,17.08c4.51-1.31,21.65-10.58,13.11-15.5-.41,1.93-2.81,5.13-7.19,9.57,3.71-4.6,5.59-8.05,5.67-10.31a17.06,17.06,0,0,0-2.94-.84ZM56.1,186.94a66.53,66.53,0,0,0,5,20.84c-4.62-2.56-19.59-17.35-10.36-20.21,0,2.23,1.78,6.32,5.41,12.24-2.88-5.95-4-10.19-3.52-12.67a18.69,18.69,0,0,1,3.44-.2Zm46.13,49.38c1.58-2.69,2.91-7.39,2.75-13.06,5.49,30-30.12,22.31-16.76,19.54,1.64-.31,4.11-.3,5.8-.73s2.18-1.73,4-2.67c2.28-1.15,2.66-.44,4.18-3.08ZM88.57,239c1.4-.83.76-.87,2.57-.92,2.33-.06,2.31-2.85,3.77-1.17a14.38,14.38,0,0,1-9.08,3.91c0-3,1.33-1,2.74-1.82Zm7-36.56c2.66,5.86,2.19,18.85-.15,20.55s-6.22-3.36-9.19-2.32,7.49,26.9-4.46,5.08c-6-11-7.62-17.67-6.29-20.18,1.09-2.06,4.19-.3,8.31-4.46-1.21,4.43-.33,10.31,2.68,17.65-1.33-4.37-4.87-21.4,4.19-20.73,2,.12,3.6,1.64,4.91,4.41Zm-13.77,32.1c-6.59-2.42-9.19-3.05-7.79-1A21.48,21.48,0,0,0,82.07,241a7.79,7.79,0,0,0,1.29-.85,16.83,16.83,0,0,1-7.79-6.34,23.48,23.48,0,0,0,8.62,5.49c2.13-2.77-.11-3.92-2.44-4.76Zm16-5.81c-7.78-4.82-10.91-6.43-9.75-3.55a25.69,25.69,0,0,0,7.68,10.86,9.69,9.69,0,0,0,1.74-.71,20.13,20.13,0,0,1-7.59-9.44,28.19,28.19,0,0,0,8.82,8.63c2.66-2.23,1.62-4.24-.9-5.79ZM21.3,189.32c-4.55-4.63-7.75-8.42-8.6-14,2.5,7.35,5.53,4.33,9.45,6.65A14.9,14.9,0,0,1,26,185.5c3,3.81.83,2.45-.88,4-2.06,1.88-.06,3.62-3.78-.18Zm12.38-.79a59.2,59.2,0,0,0,8.65,17.08c-4.52-1.31-21.66-10.58-13.12-15.5.41,1.93,2.83,5.13,7.21,9.57-3.74-4.6-5.6-8.05-5.68-10.31a17.33,17.33,0,0,1,2.94-.84ZM85.8,126.79c-5.85,1.75-11.81,3-16.26,7-4.79,4.32-6.64,5.82-11.79,6.6-4.73.74-4.71,1.07-8.75,3.78,10.09-11.07,15.48-16.24,36.8-17.33Zm-5.69,32.14h0q-33.86-9.87-55.38-2.37,23.58-13,55.38,2.37Zm-27.44-12.3h0l.82,0a212.37,212.37,0,0,1,23.82,6.07q-4.61-7-24.64-6Zm52.1-25h0c-3.62-4.82-14.35-10.84-22.67-7.27q8.91-7.16,22.14-4.68-32-22.41-67.43,18.12-4.65,4-5.18,8.81a15.94,15.94,0,0,0,2.1,7.29c-1,.84-2,1.71-3,2.58Q51.2,140,60.26,125.73q-2.77,12.69-28.79,22.21a36.07,36.07,0,0,1,18-.08c-14.34.57-23.54,1.82-31.76,12.5-3.61,4.71-7.85,11.19-.84,9.37a39.47,39.47,0,0,0,13.39-6c.87-.64,2.91-2.33,3.95-1.43,2.09,1.79.76,3.24-.64,6.14-2.46,5-8.24,9.23-5.17,14.94,2,3.75,4.47,2.42,8.49,1.72q19.47-3.36,31.07-16,.78,6.74-7.75,14.83,19.91-7.23,30,4.63c10.31,9.19,25,43.17,13.25,56.12-2.2,1.87-3,3.85-2.41,5.95a2.91,2.91,0,0,1-2-2.4c-1.12,1.2-.89,2.92.69,5.2-3.19-1.12-2.59-3.62-3.89-3.42-1.8.3-2.54,2.83-1.56,4.3-3-1.7-.32-4.87-4.19-5,.44.43,0,1.88-.86,3.35a3.81,3.81,0,0,0-2-3.68,27.47,27.47,0,0,0,2.88,9.28c-.27-5.48,1.54-6.24,3.84-.95q3.16,7.26,6.8,10.77c-1.37-3.24-1.8-5.56-1.28-6.91q12.72,7.38,26.14,6c-4.33-.77-7.56-1.94-9.66-3.53,11.12,1.36,18.69-2.51,25-9.45-14,4.51-19.62-11.62-22.94-26.27-3.12-13.82-18.39-43.18-9.29-46.26-9.14-2.55-16.71-15.15-15.27-20.51,12.29,16,17.16-1.63-2.75-7,11-6.45,22.34-20.6,7.54-29.87a11.53,11.53,0,0,0-7.67-1.71c.92-3,6.79-4.25,12.84-.11.43-.28.89-.55,1.31-.84ZM230.39,63.87a35.58,35.58,0,0,1,13.93-7.1C232.37,54.41,222.55,59.2,213,66.92a25.4,25.4,0,0,1,6.51-7.83c10.09-8.84,21.2-11.15,33.63-5.71C259.2,56,264,60.21,268.32,65.2a37.16,37.16,0,0,1,6.08,8.9c-13-10.88-26.66-17.55-44-10.23Zm-68.83,0h0a35.41,35.41,0,0,0-13.92-7.1c11.94-2.36,21.78,2.43,31.33,10.15a25.72,25.72,0,0,0-6.53-7.83c-10.08-8.84-21.21-11.15-33.62-5.71-6.06,2.64-10.9,6.83-15.18,11.82a36.84,36.84,0,0,0-6.07,8.9c13-10.88,26.64-17.55,44-10.23ZM271,147.37c7.3,12.42,7.17,15.17-1.71,26.08-4.49,5.5-8.65,11.24-11.39,17.42-3.21,1.74-4.71-1.61-7-1.55-1,1-.21,2,.28,2.79,1.63,2.78,3.78,5.34,4,8.79.7,9.2,2,16.82-10,20.7a17.06,17.06,0,0,0-3.53,2.2c2.23,3.54,5.1.44,7.34,1.48-2.51,18.55-17.61,26.33-31.64,16.27-2-1.4-3.67-3.27-5.71-4.54-12.11-7.62-14.07-19.46-11.92-33.17,6.58-5.52,19.58-2.44,18.93-18.18-7.72-.29-15.42.18-23.09.41h-.22c-7.67-.23-15.37-.7-23.09-.41-.64,15.74,12.35,12.66,18.93,18.18,2.15,13.71.19,25.55-11.94,33.17-2,1.27-3.73,3.14-5.71,4.54-14,10.06-29.12,2.28-31.64-16.27,2.26-1,5.13,2.06,7.34-1.48a16.45,16.45,0,0,0-3.51-2.2c-12-3.88-10.66-11.5-10-20.7.27-3.45,2.42-6,4.05-8.79.49-.84,1.28-1.76.29-2.79-2.33-.06-3.83,3.29-7,1.55-2.74-6.18-6.9-11.92-11.39-17.42-8.9-10.91-9-13.66-1.7-26.08q1.64-2.79,3.36-5.52c8.75-13.71,13.57-28.65,12.29-45.65-.32-4-.25-8.19,3.3-11.3a65.31,65.31,0,0,0,27.28-.05c4.6,2.78,5.87,8.54,10.15,10.78,2.3-2.94-.8-5.94,1.19-9.37l17.93,21.08,17.93-21.08c2,3.43-1.12,6.43,1.19,9.37,4.27-2.24,5.55-8,10.13-10.78a65.4,65.4,0,0,0,27.3.05c3.55,3.11,3.6,7.29,3.3,11.3-1.3,17,3.54,31.94,12.29,45.65q1.72,2.73,3.37,5.52ZM235.91,138h0c2.62-5,5.48-9.41,6.78-17.35-7,4.44-12.33,7.8-17.65,11.24-4.91,3.2-9.61,7.37-16.54,2.47,2.9,15.7,5.46,29.66,8,43.61.57-11.83-2.54-22.93.19-34.69,6.52-1.81,12.94-3.56,19.2-5.28Zm-80.85,0h0q9.42,2.58,19.21,5.28c2.74,11.76-.38,22.86.19,34.69l8-43.61c-6.91,4.9-11.61.73-16.54-2.47-5.3-3.44-10.66-6.8-17.65-11.24,1.32,7.94,4.16,12.33,6.79,17.35ZM210,240.86h0a19.27,19.27,0,0,0-14.39-7.64h-.22A19.34,19.34,0,0,0,181,240.86c-5.23,6.64-11.21,11.35-19.81,12,.76,9.29,6.94,14.35,12,18.19,7.89,6,17.48,9.36,22.22,21.79v.44l0,0c0-.06.05-.14.08-.21a1.31,1.31,0,0,0,.08.21l0,0v-.44c4.75-12.43,14.33-15.78,22.22-21.79,5-3.84,11.22-8.9,12-18.19-8.62-.66-14.58-5.37-19.83-12Z"/><path class="cls-2" d="M515.32,178.79a59.07,59.07,0,0,1-5.93.61c-1.85.14-4.18.24-6.92.31s-5.72.11-9.23.11c-7,0-12.72-.77-16.86-2.28a17.15,17.15,0,0,1-9-7.15c-2.19-3.48-3.66-8.18-4.36-14a194.62,194.62,0,0,1-1.1-22.65l-.41-53.37c0-17.6-9.41-26.91-27.21-26.91h-2.71l.43,2.68c.12.79.25,2,.38,3.62s.2,3.51.2,6,.07,6,.2,10.23v56.51c0,13.38.84,24.8,2.49,33.93,1.69,9.36,4.75,17,9.11,22.74a36,36,0,0,0,17.95,12.47c7.27,2.38,16.58,3.58,27.66,3.58a32.29,32.29,0,0,0,12.41-2.17,28.7,28.7,0,0,0,8.65-5.39,21.28,21.28,0,0,0,5.25-7.42,20.55,20.55,0,0,0,1.71-7.93v-4Z"/><path class="cls-2" d="M563,54.55c-8.94,0-15.92,2-20.74,5.87s-7.49,10.67-7.49,19.77V182.51c-.14,4.19-.21,7.67-.21,10.34s-.06,4.62-.19,6.12-.26,2.81-.39,3.6l-.43,2.68h2.71c8.82,0,15.71-2,20.47-6s7.35-10.77,7.35-19.84L564.52,77c0-4.28,0-7.59.1-10.14s.17-4.56.3-6.07.26-2.81.39-3.6l.44-2.68Z"/><path class="cls-2" d="M724.42,96.22A71.41,71.41,0,0,0,708.28,72a68.81,68.81,0,0,0-23.12-14.79,74.7,74.7,0,0,0-53.69,0A68.72,68.72,0,0,0,608.35,72a71.41,71.41,0,0,0-16.14,24.21c-4,9.56-6,20.78-6,33.36s2,23.84,6,33.46a72.36,72.36,0,0,0,16.13,24.42,67.7,67.7,0,0,0,23.13,14.9,74.7,74.7,0,0,0,53.69,0,67.7,67.7,0,0,0,23.13-14.9A72.36,72.36,0,0,0,724.42,163c4-9.62,6-20.88,6-33.46S728.4,105.78,724.42,96.22Zm-25.57,33.36c0,9.65-1.19,18-3.55,24.9a52,52,0,0,1-9.36,17.11,36.32,36.32,0,0,1-13,9.89,35.7,35.7,0,0,1-29.36,0,36.4,36.4,0,0,1-12.94-9.89,52.06,52.06,0,0,1-9.36-17.11c-2.36-6.88-3.55-15.25-3.55-24.9s1.19-17.81,3.55-24.68A49.41,49.41,0,0,1,630.67,88a37.51,37.51,0,0,1,13-9.72,35.68,35.68,0,0,1,29.36,0A37.55,37.55,0,0,1,686,88a49.58,49.58,0,0,1,9.34,16.87C697.66,111.77,698.85,120.08,698.85,129.58Z"/><path class="cls-2" d="M870.32,54.55c-8.94,0-16,2-20.85,6s-7.58,10.7-7.58,19.68l.53,79.8c-4.15-9.79-8.1-19.1-11.81-27.77-2.11-4.9-4.31-9.93-6.54-15-2.15-4.83-4.17-9.46-6-13.74s-3.5-8.07-4.91-11.18S810.67,87,810,85.46c-5.18-10.37-11.25-18.18-18-23.21s-16.09-7.7-27.29-7.7a41.57,41.57,0,0,0-4.43.22,26.39,26.39,0,0,0-3.85.68c-1.28.29-2.42.59-3.39.87l-1.66.49v122.8c0,9.11,2.56,15.76,7.6,19.78s11.9,5.86,20.83,5.86h2.72l-.44-2.69c-.13-.79-.26-2-.38-3.61s-.24-3.57-.3-6.16-.17-6.11-.31-10.26l-.72-89.72q6.86,15.8,13,29.92,3.47,8,7,16.18t6.73,15.45c2.12,4.86,4.08,9.26,5.84,13.07s3.23,6.91,4.3,9c4.63,9.69,10.19,17,16.52,21.67s14.82,7.18,25,7.18a43.13,43.13,0,0,0,4.42-.22,26.25,26.25,0,0,0,3.84-.68c1.27-.29,2.42-.58,3.41-.88L872,203l-.21-125.73c0-4.31,0-7.63.1-10.14s.17-4.57.3-6.07.26-2.91.4-3.86l.37-2.63Z"/><path class="cls-2" d="M999.52,154.66a44.07,44.07,0,0,0-7-17.2c-3.75-5.74-9.47-11.43-17-16.91a130.69,130.69,0,0,0-17.35-10.38c-6-3-11.46-6-16.34-9a52.85,52.85,0,0,1-11.34-9,8.69,8.69,0,0,1-2-9,7.54,7.54,0,0,1,2.26-3.72,13.63,13.63,0,0,1,4.19-2.51,23.48,23.48,0,0,1,5.31-1.34,39.3,39.3,0,0,1,5.4-.4h.09a47.84,47.84,0,0,1,11.17,1.11A75.58,75.58,0,0,1,969,79.81c1.36.55,2.61,1.08,3.76,1.56s2.24.94,3.38,1.37a15.75,15.75,0,0,0,6.4,1.66,9.81,9.81,0,0,0,5.79-1.88,21.22,21.22,0,0,0,4.61-4.69l1.48-2.29-1.18-1.31a60.79,60.79,0,0,0-13.37-10.94,90.43,90.43,0,0,0-16.34-7.56,67.38,67.38,0,0,0-22.62-3.5,57.24,57.24,0,0,0-15.2,2.08A41.92,41.92,0,0,0,911.89,61a39.19,39.19,0,0,0-10.31,11.5,38.55,38.55,0,0,0-5,16.33,36.29,36.29,0,0,0,6.5,23.87c4.93,7.34,12.53,14,22.62,20q9,5.06,16.95,9.47a146.57,146.57,0,0,1,13.65,8.47,39.48,39.48,0,0,1,8.78,8.22,13.09,13.09,0,0,1,2.7,8.61,15.11,15.11,0,0,1-1.26,5.74,14.82,14.82,0,0,1-4.07,5.44,23,23,0,0,1-7.79,4.17,38.31,38.31,0,0,1-12.11,1.67h-2.19a69.68,69.68,0,0,1-12.77-1.72,67.55,67.55,0,0,1-9.17-2.9c-1.33-.68-2.57-1.29-3.7-1.8a22.55,22.55,0,0,0-3.5-1.25c-1-.4-2-.75-3-1.05a11.55,11.55,0,0,0-3.45-.53,10.34,10.34,0,0,0-5.51,1.61l-.16.11a20.38,20.38,0,0,0-4.5,4.8l-1.5,1.55.53,1.38c.68,1.75,2.23,3.81,4.91,6.48a48.88,48.88,0,0,0,10,7.4,69.14,69.14,0,0,0,14.67,6.21,66.5,66.5,0,0,0,19.35,2.62,74.56,74.56,0,0,0,29.58-5.75c9-3.89,16-9.6,20.51-16.95a49,49,0,0,0,6-13.67A38.67,38.67,0,0,0,999.52,154.66Z"/><path class="cls-2" d="M437.42,244.88h2.42l13.87,20.44,13.87-20.44H470v34.56h-2.57v-30l-13.67,19.9h-.2l-13.67-19.9v30h-2.47Z"/><path class="cls-2" d="M495.87,244.63h2.47l16.09,34.81h-2.81l-4.4-9.68H486.84l-4.4,9.68h-2.66Zm10.27,22.81-9.09-20-9.13,20Z"/><path class="cls-2" d="M524.21,244.88h14.51c4.25,0,7.65,1.33,9.73,3.41a9.11,9.11,0,0,1,2.61,6.42v.09c0,5.78-4.29,9.09-10.12,9.88l11.41,14.76h-3.26l-11-14.32h-11.3v14.32h-2.57Zm14.22,17.92c5.77,0,10.07-2.91,10.07-7.9v-.1c0-4.64-3.66-7.55-9.93-7.55H526.78V262.8Z"/><path class="cls-2" d="M562.37,244.88h2.57v22.71l22-22.71h3.51l-15.11,15.25,15.75,19.31h-3.36L573.53,262l-8.59,8.69v8.79h-2.57Z"/><path class="cls-2" d="M600.14,244.88h24.58v2.37h-22v13.58h19.8v2.37H602.7v13.87H625v2.37H600.14Z"/><path class="cls-2" d="M645.26,247.25h-12v-2.37h26.65v2.37h-12v32.19h-2.57Z"/><path class="cls-2" d="M670.49,244.88h2.57v34.56h-2.57Z"/><path class="cls-2" d="M686.14,244.88h2.42L712.4,275V244.88h2.47v34.56h-1.93l-24.33-30.71v30.71h-2.47Z"/><path class="cls-2" d="M726.08,262.26v-.1c0-9.33,6.76-17.87,17.08-17.87a18.14,18.14,0,0,1,12.64,4.54l-1.68,1.93A15.58,15.58,0,0,0,743,246.61c-8.39,0-14.27,7.11-14.27,15.45v.1c0,8.93,5.58,15.6,14.81,15.6a17.76,17.76,0,0,0,11-3.95v-9.92H743v-2.37h14v13.33A20.81,20.81,0,0,1,743.45,280C732.54,280,726.08,272,726.08,262.26Z"/><path class="cls-2" d="M786.06,244.88h11.5c10.86,0,18.37,7.46,18.37,17.18v.1c0,9.72-7.51,17.28-18.37,17.28h-11.5Zm2.57,2.37v29.82h8.93c9.63,0,15.7-6.57,15.7-14.81v-.1c0-8.2-6.07-14.91-15.7-14.91Z"/><path class="cls-2" d="M827.48,244.88h2.57v34.56h-2.57Z"/><path class="cls-2" d="M841.6,262.26v-.1c0-9.33,6.76-17.87,17.08-17.87a18.14,18.14,0,0,1,12.64,4.54l-1.68,1.93a15.58,15.58,0,0,0-11.11-4.15c-8.39,0-14.27,7.11-14.27,15.45v.1c0,8.93,5.58,15.6,14.82,15.6a17.73,17.73,0,0,0,11-3.95v-9.92H858.53v-2.37h14v13.33A20.8,20.8,0,0,1,859,280C848.07,280,841.6,272,841.6,262.26Z"/><path class="cls-2" d="M884.65,244.88h2.57v34.56h-2.57Z"/><path class="cls-2" d="M909.87,247.25h-12v-2.37h26.66v2.37h-12v32.19h-2.57Z"/><path class="cls-2" d="M943.45,244.63h2.46L962,279.44h-2.82l-4.39-9.68H934.41L930,279.44h-2.67Zm10.26,22.81-9.08-20-9.13,20Z"/><path class="cls-2" d="M971.78,244.88h2.57v32.19h20.29v2.37H971.78Z"/></svg>