<?xml version="1.0" encoding="utf-8"?>
<!-- Generator: Adobe Illustrator 23.0.0, SVG Export Plug-In . SVG Version: 6.00 Build 0)  -->
<svg version="1.1" id="Layer_1" xmlns="http://www.w3.org/2000/svg" xmlns:xlink="http://www.w3.org/1999/xlink" x="0px" y="0px"
	 viewBox="0 0 1000 345.1" style="enable-background:new 0 0 1000 345.1;" xml:space="preserve">
<style type="text/css">
	.st0{fill-rule:evenodd;clip-rule:evenodd;fill:#FFFFFF;}
	.st1{fill:#FFFFFF;}
</style>
<title>logo__horizontal-preto</title>
<path class="st0" d="M195.9,18.3l0.1,0.1l0.1-0.1v0.1c0.6-0.6,1.1-1.3,1.8-1.9c1.4-1.3,2.8-2.5,4.3-3.6c3.9-3,13.5-9.8,13.6-9.7
	c-1.5,3-3.1,5.9-4.4,8.9s-2.1,6.4-3.3,9.9c0.4-0.3,3.6-3.1,5.1-4.4c3.5-2.9,7-5.9,10.6-8.8c4.3-3.2,8.8-6.2,13.6-8.8
	c-4.3,7.6-7.3,15.4-6.6,24.4c0.4-0.2,5.4-3.4,7.6-4.5c2.3-1.1,4.7-2,7.2-2.5c-1.3,2.2-1.2,5.4,0,9.6c0.5,1.9,1.3,3.7,2.2,5.3
	c-1.6-6.2-1.9-11.1,1.4-13.7c-0.4,2.4-0.2,4.9,0.5,7.2c0-6.8,3.8-8.8,9.1-8.8c2.8,0.5,5.5,1.2,8.2,2c-19.4,3.9,4,15.5,9.3,19.5
	c5,3.9,9.6,8.1,12.8,13.4c0.9,1.5,2,2.9,3.2,4.5c8.4-10.6-25.7-33.7-27.4-31.5c0.4-1.8,17.4,3,27.1,10c2,1.5,3.9,2.8,5.6,4.1
	c-0.1,0-0.3-0.1-0.4-0.1c8.7,7,14.7,15.1,11.9,28.1c1.7-3.3,2.8-6.9,3-10.7c3,7.7,1,15.2-3,23c1.8-1.6,3.3-3.6,4.4-5.8
	c3-5.5,4.2-10.8,3.2-15.9c3.8,4.5,7.1,9.5,9.9,14.7c0.8,1.6,1.5,3.1,2.2,4.7c0.1,0,0.8-6.9-0.3-9.9c-1.4-3.8-6.2-11.5-6.4-11.8
	c3.1,1.7,6.2,3.7,9.1,5.8c6,4.1,9.8,10.7,10.6,17.9c0.6,5.6,0.4,11.2,0.6,16.8c0,1.6-0.2,3.1-0.4,5.1c2.9-2.2,5.2-5,6.9-8.2
	c1.9-3.8,4.3-12.8,4.6-13.5c1.6,3.4,2.4,7.1,2.5,10.9c0.1,6.9-5,19.3-6.4,22.6c0.6,0.7,1.3,1.4,1.9,2.1c8.8,3.1,11.2,4.6,22.7,19.1
	c1.7,2.3,3.3,4.6,4.7,7.1c2.3,2.8,4.4,5.8,6.2,8.9c0.3,0.3,0.6,0.7,0.9,1c-1.3-0.5-2.6-1-4-1.4c-3.5-1.2-7.1-1.7-10.8-1.5
	c11.5,4,19.9,9.5,20.9,20c-2.8-3.3-6.8-5.9-12.2-7.7c11,12.9,2,35.3-11.1,43.6c0.2,7.3,6.4,7.1,4,29.6c-0.2,2.5-1.2,5-2.8,7
	c-0.8,1.1-1.6,2.1-2.5,3.1c-0.2-6.4-2.9-12.6-7.6-18.6c-1.9-2.6-4.3-4.9-7-6.7c6.9,9.5,11.2,19,8.9,29.8c-1.1-4.9-3.3-9.5-6.3-13.5
	c2.9,7.4,3.3,13.9,1.9,19.8c-2.3,2.2-4.7,4.4-7.1,6.6c-3.4,3.1-6.8,6.1-10.3,9c-1.2,1-2.6,1.9-3.8,2.8c0.3-1.7,0.8-3.3,1.4-4.9
	c2.1-5.6,2.4-11.7,0.9-17.5c-0.5,8.1-1.4,9.7-4.1,12.5c1.1-4.6,0.6-6.4-1.5-10.6c0.5,3.5,0.1,7.1-1,10.5c-0.9,3.3-2.5,6.4-4.6,9.2
	c-3.1,3.6-6.6,6.9-10.3,9.8c-4.9,3.8-9.3,8.3-13,13.2c-4.1,5.7-6.3,12.5-6.1,19.5c0,0.6,0.1,1.3,0.1,2c-0.5-0.1-7.4-7.4-9.7-11.3
	c-1.9-3.2-3.5-6.6-3.6-10.3c1.5-53.6-4.3,35.8-7.9-3.3c-1.2,4-3,7.7-5.3,11.2c-3.4,4.9-7.9,9-13,12.1c-6,3.6-12.1,7.2-18.1,10.8
	c-0.8,0.5-1.6,0.9-2.5,1.3c0-0.5,3.4-8,4.9-11.4c2-4.5,4-9.1,5.1-13.9c1.1-5.1,2.4-10.1,1.7-15.4c-0.3-1.8-0.7-3.6-1.3-5.4
	c-0.6-1.4-2-2.3-3.4-2.2c-1.5,0.1-2.8,1.2-3.2,2.7c-0.1,0.5-0.2,1.1-0.2,1.6c0.1,4-0.2,8-1,12c-0.7,3.9-2.5,7.5-5,10.6
	c-4.2,4.9-8.6,9.8-13.2,14.5c-6.3,6.3-12.9,12.4-19.3,18.6c-2.1,2.1-4.4,4.1-6.6,6.1l0,0l0,0c-2.2-2-4.4-4-6.6-6.1
	c-6.5-6.2-13.1-12.2-19.3-18.5c-4.6-4.6-9-9.5-13.2-14.5c-2.5-3.1-4.2-6.7-5-10.6c-0.8-4-1.1-8-1-12c0-0.5-0.1-1.1-0.2-1.6
	c-0.4-1.5-1.7-2.6-3.2-2.7c-1.5-0.1-2.9,0.8-3.5,2.2c-0.6,1.7-1.1,3.5-1.3,5.4c-0.8,5.2,0.6,10.3,1.7,15.4c1.1,4.8,3.1,9.3,5.1,13.9
	c1.5,3.4,4.9,10.9,4.9,11.4c-0.8-0.4-1.7-0.8-2.4-1.3c-6-3.6-12.1-7.2-18.1-10.8c-5.1-3.1-9.6-7.2-13-12.1
	c-2.3-3.5-4.1-7.2-5.3-11.2c-3.6,39-9.4-50.3-7.9,3.3c-0.1,3.7-1.7,7-3.5,10.3c-2.3,3.9-9.3,11.2-9.7,11.3c0.1-0.7,0.1-1.3,0.1-2
	c0.1-7-2-13.9-6.1-19.5c-3.8-4.9-8.1-9.4-13-13.2c-3.7-3-7.2-6.2-10.3-9.8c-2.1-2.7-3.7-5.8-4.6-9.1c-1.1-3.4-1.5-7-1-10.5
	c-2.1,4.3-2.6,6.1-1.5,10.6c-2.8-2.8-3.6-4.5-4.2-12.5c-1.6,5.8-1.3,11.9,0.8,17.5c0.6,1.6,1.1,3.2,1.4,4.9
	c-1.3-0.9-2.7-1.8-3.9-2.8c-3.5-3-6.9-5.9-10.2-9c-2.4-2.2-4.8-4.4-7.1-6.6c-1.3-5.9-1-12.4,1.9-19.8c-3,4-5.2,8.6-6.3,13.5
	c-2.3-10.9,2-20.3,8.9-29.8c-2.8,1.8-5.1,4-7,6.7c-4.8,6-7.4,12.2-7.6,18.6c-0.8-1.1-1.7-2.1-2.5-3.1c-1.6-2-2.5-4.5-2.7-7
	c-2.4-22.6,3.9-22.3,4-29.6c-13.1-8.3-22.1-30.8-11.1-43.6c-5.3,1.8-9.3,4.3-12.1,7.6c1-10.5,9.4-16,20.9-20
	c-3.6-0.2-7.3,0.4-10.8,1.5c-1.4,0.4-2.7,0.9-4,1.4c0.3-0.4,0.6-0.7,0.9-1c1.8-3.1,3.9-6.1,6.2-8.9c1.4-2.4,3-4.8,4.7-7
	c11.5-14.4,13.9-15.9,22.7-19.1c0.6-0.7,1.3-1.4,1.9-2.1c-1.4-3.3-6.5-15.7-6.4-22.6c0-3.8,0.9-7.5,2.4-10.9
	c0.3,0.8,2.7,9.7,4.5,13.5c1.7,3.2,4,6,6.9,8.2c-0.2-2-0.4-3.5-0.4-5.1c0.1-5.6,0-11.2,0.6-16.8c0.8-7.2,4.7-13.7,10.6-17.9
	c2.9-2.1,6-4,9.1-5.8c-0.2,0.4-5,8-6.4,11.8c-1.1,3-0.5,9.8-0.3,9.9c0.7-1.6,1.4-3.1,2.2-4.7c2.6-5,5.7-9.7,9.3-14.1
	c-0.8,4.9,0.4,10,3.3,15.2c1.1,2.2,2.6,4.1,4.4,5.8c-3.9-7.8-5.9-15.3-3-23c0.2,3.7,1.3,7.4,3,10.7c-2.6-12.3,2.6-20.3,10.6-27
	c2.1-1.6,4.4-3.3,7-5.1c9.7-7,26.7-11.7,27.1-10c-1.7-2.1-35.8,21-27.4,31.5c1.2-1.7,2.3-3,3.2-4.5c3.2-5.3,7.7-9.5,12.8-13.4
	c5.3-4.1,28.8-15.6,9.3-19.5c2.7-0.8,5.4-1.5,8.2-2c5.4,0,9.1,2,9.1,8.8c0.7-2.3,0.9-4.8,0.5-7.2c3.3,2.5,3,7.5,1.4,13.7
	c1-1.7,1.7-3.4,2.2-5.3c1.3-4.2,1.3-7.5,0.1-9.6c2.5,0.5,4.9,1.4,7.2,2.5c2.3,1.1,7.2,4.3,7.6,4.5c0.7-9-2.3-16.8-6.6-24.4
	c4.7,2.6,9.2,5.5,13.6,8.8c3.5,2.9,7.1,5.8,10.6,8.8c1.4,1.2,4.6,4,5.1,4.4c-1.2-3.5-1.9-6.8-3.3-9.9s-3-5.9-4.4-8.9
	c0-0.1,9.7,6.8,13.6,9.7c1.5,1.2,2.9,2.4,4.3,3.6C194.7,17.1,195.3,17.7,195.9,18.3L195.9,18.3z M306.1,126.8c5.9,1.8,11.8,3,16.3,7
	c4.8,4.3,6.7,5.8,11.8,6.6c4.7,0.7,4.7,1.1,8.8,3.8C332.9,133.1,327.5,127.9,306.1,126.8L306.1,126.8z M311.9,158.9L311.9,158.9
	c22.5-6.6,41-7.4,55.4-2.4C351.5,147.9,333,148.7,311.9,158.9z M339.3,146.6L339.3,146.6h-0.8c-8.1,1.6-16,3.6-23.8,6.1
	C317.7,148,325.9,146,339.3,146.6L339.3,146.6z M287.2,121.6L287.2,121.6c3.6-4.8,14.4-10.8,22.7-7.3c-6-4.8-13.3-6.3-22.1-4.7
	c21.3-14.9,43.8-8.9,67.4,18.1c3.1,2.7,4.8,5.6,5.2,8.8c-0.1,2.6-0.8,5.1-2.1,7.3c1,0.8,2,1.7,3,2.6c-13.7-4.3-23.5-11.3-29.6-20.7
	c1.8,8.5,11.4,15.9,28.8,22.2c-5.9-1.5-12.1-1.6-18-0.1c14.4,0.6,23.6,1.8,31.8,12.5c3.6,4.7,7.8,11.2,0.9,9.4
	c-4.8-1.1-9.4-3.2-13.4-6c-0.9-0.6-2.9-2.3-3.9-1.4c-2.1,1.8-0.8,3.2,0.6,6.1c2.4,5,8.2,9.2,5.2,14.9c-2,3.8-4.5,2.4-8.5,1.7
	c-13-2.2-23.4-7.6-31.1-16c-0.5,4.5,2,9.4,7.7,14.8c-13.3-4.8-23.3-3.3-30,4.6c-10.3,9.2-25,43.2-13.3,56.1c2.2,1.9,3,3.9,2.4,5.9
	c1.1-0.3,1.9-1.3,2.1-2.4c1.1,1.2,0.9,2.9-0.7,5.2c3.2-1.1,2.6-3.6,3.9-3.4c1.8,0.3,2.6,2.8,1.6,4.3c3-1.7,0.3-4.9,4.2-5
	c-0.5,0.4,0,1.9,0.8,3.4c-0.1-1.5,0.7-3,2-3.7c-0.4,3.2-1.4,6.4-2.9,9.3c0.3-5.5-1.5-6.2-3.8-1c-2.1,4.8-4.4,8.4-6.8,10.8
	c1.4-3.2,1.8-5.6,1.3-6.9c-8.5,4.9-17.2,6.9-26.1,6c4.3-0.8,7.6-1.9,9.7-3.5c-11.1,1.4-18.7-2.5-25-9.4c14,4.5,19.6-11.6,23-26.3
	c3.1-13.8,18.4-43.2,9.3-46.3c9.1-2.6,16.7-15.1,15.3-20.5c-12.3,16-17.1-1.6,2.8-7c-11-6.4-22.3-20.6-7.5-29.9
	c2.3-1.5,5-2.1,7.7-1.7c-0.9-3-6.8-4.3-12.8-0.1c-0.4-0.3-0.9-0.6-1.3-0.8L287.2,121.6z M335.8,187c-0.5,7.2-2.2,14.2-5,20.8
	c4.6-2.6,19.6-17.4,10.4-20.2c0,2.2-1.8,6.3-5.4,12.2c2.9-5.9,4-10.2,3.5-12.7C338.2,187,337,186.9,335.8,187L335.8,187z
	 M289.7,236.3c-1.6-2.7-2.9-7.4-2.8-13.1c-5.5,30,30.1,22.3,16.8,19.5c-1.7-0.3-4.1-0.3-5.8-0.7s-2.2-1.7-4-2.7
	C291.6,238.3,291.2,239,289.7,236.3L289.7,236.3z M303.4,239c-1.4-0.8-0.8-0.9-2.6-0.9c-2.3-0.1-2.3-2.9-3.8-1.2
	c2.5,2.3,5.7,3.7,9.1,3.9C306.2,237.8,304.8,239.8,303.4,239L303.4,239z M296.4,202.4c-2.7,5.9-2.2,18.9,0.1,20.6s6.2-3.4,9.2-2.3
	s-7.5,26.9,4.5,5.1c6-11,7.6-17.7,6.3-20.2c-1.1-2.1-4.2-0.3-8.3-4.5c1.2,4.4,0.3,10.3-2.7,17.6c1.3-4.4,4.9-21.4-4.2-20.7
	C299.3,198.1,297.7,199.7,296.4,202.4z M310.2,234.5c6.6-2.4,9.2-3.1,7.8-1c-2,3.1-4.8,5.7-8.1,7.5c-0.5-0.2-0.9-0.5-1.3-0.9
	c3.2-1.3,5.9-3.5,7.8-6.3c-2.4,2.4-5.4,4.3-8.6,5.5C305.6,236.5,307.8,235.4,310.2,234.5L310.2,234.5z M294.2,228.7
	c7.8-4.8,10.9-6.4,9.8-3.6c-1.6,4.2-4.2,8-7.7,10.9c-0.6-0.2-1.2-0.4-1.8-0.7c3.4-2.3,6.1-5.6,7.6-9.4c-2.3,3.5-5.3,6.4-8.8,8.6
	C290.6,232.3,291.7,230.3,294.2,228.7z M370.6,189.3c4.6-4.6,7.7-8.4,8.6-14c-2.5,7.4-5.5,4.3-9.5,6.6c-1.4,1-2.7,2.2-3.8,3.5
	c-3,3.8-0.8,2.4,0.9,4C368.9,191.4,366.9,193.1,370.6,189.3L370.6,189.3z M358.3,188.5c-1.9,6.1-4.9,11.9-8.6,17.1
	c4.5-1.3,21.6-10.6,13.1-15.5c-0.4,1.9-2.8,5.1-7.2,9.6c3.7-4.6,5.6-8.1,5.7-10.3C360.2,189,359.3,188.7,358.3,188.5z M56.1,186.9
	c0.5,7.2,2.2,14.2,5,20.8c-4.6-2.6-19.6-17.4-10.4-20.2c0,2.2,1.8,6.3,5.4,12.2c-2.9-5.9-4-10.2-3.5-12.7
	C53.8,187,54.9,186.9,56.1,186.9L56.1,186.9z M102.2,236.3c1.6-2.7,2.9-7.4,2.8-13.1c5.5,30-30.1,22.3-16.8,19.5
	c1.6-0.3,4.1-0.3,5.8-0.7s2.2-1.7,4-2.7C100.3,238.3,100.7,239,102.2,236.3L102.2,236.3z M88.6,239c1.4-0.8,0.8-0.9,2.6-0.9
	c2.3-0.1,2.3-2.9,3.8-1.2c-2.5,2.3-5.7,3.7-9.1,3.9C85.8,237.8,87.2,239.8,88.6,239z M95.6,202.4c2.7,5.9,2.2,18.9-0.2,20.6
	s-6.2-3.4-9.2-2.3s7.5,26.9-4.5,5.1c-6-11-7.6-17.7-6.3-20.2c1.1-2.1,4.2-0.3,8.3-4.5c-1.2,4.4-0.3,10.3,2.7,17.6
	c-1.3-4.4-4.9-21.4,4.2-20.7C92.7,198.1,94.3,199.7,95.6,202.4z M81.8,234.5c-6.6-2.4-9.2-3.1-7.8-1c2,3.1,4.8,5.7,8.1,7.5
	c0.5-0.2,0.9-0.5,1.3-0.9c-3.2-1.3-5.9-3.5-7.8-6.3c2.4,2.4,5.4,4.3,8.6,5.5C86.3,236.5,84.1,235.4,81.8,234.5L81.8,234.5z
	 M97.8,228.7c-7.8-4.8-10.9-6.4-9.8-3.6c1.6,4.2,4.2,8,7.7,10.9c0.6-0.2,1.2-0.4,1.7-0.7c-3.4-2.3-6.1-5.6-7.6-9.4
	c2.3,3.5,5.3,6.4,8.8,8.6C101.4,232.3,100.3,230.3,97.8,228.7z M21.3,189.3c-4.5-4.6-7.8-8.4-8.6-14c2.5,7.4,5.5,4.3,9.4,6.6
	c1.5,0.9,2.8,2.1,3.9,3.5c3,3.8,0.8,2.4-0.9,4C23.1,191.4,25.1,193.1,21.3,189.3L21.3,189.3z M33.7,188.5c1.9,6.1,4.9,11.9,8.7,17.1
	c-4.5-1.3-21.7-10.6-13.1-15.5c0.4,1.9,2.8,5.1,7.2,9.6c-3.7-4.6-5.6-8.1-5.7-10.3C31.7,189,32.7,188.7,33.7,188.5L33.7,188.5z
	 M85.8,126.8c-5.8,1.8-11.8,3-16.3,7c-4.8,4.3-6.6,5.8-11.8,6.6c-4.7,0.7-4.7,1.1-8.8,3.8C59.1,133.1,64.5,127.9,85.8,126.8
	L85.8,126.8z M80.1,158.9L80.1,158.9c-22.6-6.6-41-7.4-55.4-2.4C40.4,147.9,58.9,148.7,80.1,158.9z M52.7,146.6L52.7,146.6h0.8
	c8.1,1.6,16,3.6,23.8,6.1C74.2,148,66,146,52.7,146.6L52.7,146.6z M104.8,121.6L104.8,121.6c-3.6-4.8-14.3-10.8-22.7-7.3
	c5.9-4.8,13.3-6.3,22.1-4.7c-21.3-14.9-43.8-8.9-67.4,18.1c-3.1,2.7-4.8,5.6-5.2,8.8c0.1,2.6,0.8,5.1,2.1,7.3c-1,0.8-2,1.7-3,2.6
	c13.6-4.3,23.5-11.2,29.5-20.7c-1.8,8.5-11.4,15.9-28.8,22.2c5.9-1.5,12.1-1.6,18-0.1c-14.3,0.6-23.5,1.8-31.8,12.5
	c-3.6,4.7-7.9,11.2-0.8,9.4c4.8-1.1,9.3-3.2,13.4-6c0.9-0.6,2.9-2.3,4-1.4c2.1,1.8,0.8,3.2-0.6,6.1c-2.5,5-8.2,9.2-5.2,14.9
	c2,3.8,4.5,2.4,8.5,1.7c13-2.2,23.3-7.6,31.1-16c0.5,4.5-2.1,9.4-7.8,14.8c13.3-4.8,23.3-3.3,30,4.6c10.3,9.2,25,43.2,13.3,56.1
	c-2.2,1.9-3,3.9-2.4,5.9c-1.1-0.3-1.9-1.3-2-2.4c-1.1,1.2-0.9,2.9,0.7,5.2c-3.2-1.1-2.6-3.6-3.9-3.4c-1.8,0.3-2.5,2.8-1.6,4.3
	c-3-1.7-0.3-4.9-4.2-5c0.4,0.4,0,1.9-0.9,3.4c0.1-1.5-0.7-3-2-3.7c0.4,3.2,1.4,6.4,2.9,9.3c-0.3-5.5,1.5-6.2,3.8-1
	c2.1,4.8,4.4,8.4,6.8,10.8c-1.4-3.2-1.8-5.6-1.3-6.9c8.5,4.9,17.2,6.9,26.1,6c-4.3-0.8-7.6-1.9-9.7-3.5c11.1,1.4,18.7-2.5,25-9.4
	c-14,4.5-19.6-11.6-22.9-26.3c-3.1-13.8-18.4-43.2-9.3-46.3c-9.1-2.6-16.7-15.1-15.3-20.5c12.3,16,17.2-1.6-2.8-7
	c11-6.4,22.3-20.6,7.5-29.9c-2.3-1.5-5-2.1-7.7-1.7c0.9-3,6.8-4.3,12.8-0.1C103.8,122.2,104.3,121.9,104.8,121.6L104.8,121.6z
	 M230.4,63.9c4.1-3.4,8.8-5.8,13.9-7.1c-12-2.4-21.8,2.4-31.3,10.1c1.6-3,3.8-5.7,6.5-7.8c10.1-8.8,21.2-11.2,33.6-5.7
	c6.1,2.6,10.9,6.8,15.2,11.8c2.4,2.7,4.5,5.7,6.1,8.9C261.4,63.2,247.7,56.5,230.4,63.9L230.4,63.9z M161.6,63.9L161.6,63.9
	c-4.1-3.4-8.8-5.8-13.9-7.1c11.9-2.4,21.8,2.4,31.3,10.1c-1.6-3-3.9-5.7-6.5-7.8c-10.1-8.8-21.2-11.2-33.6-5.7
	c-6.1,2.6-10.9,6.8-15.2,11.8c-2.4,2.7-4.5,5.7-6.1,8.9C130.6,63.2,144.2,56.5,161.6,63.9L161.6,63.9z M271,147.4
	c7.3,12.4,7.2,15.2-1.7,26.1c-4.5,5.5-8.6,11.2-11.4,17.4c-3.2,1.7-4.7-1.6-7-1.6c-1,1-0.2,2,0.3,2.8c1.6,2.8,3.8,5.3,4,8.8
	c0.7,9.2,2,16.8-10,20.7c-1.3,0.6-2.4,1.3-3.5,2.2c2.2,3.5,5.1,0.4,7.3,1.5c-2.5,18.6-17.6,26.3-31.6,16.3c-2-1.4-3.7-3.3-5.7-4.5
	c-12.1-7.6-14.1-19.5-11.9-33.2c6.6-5.5,19.6-2.4,18.9-18.2c-7.7-0.3-15.4,0.2-23.1,0.4h-0.2c-7.7-0.2-15.4-0.7-23.1-0.4
	c-0.6,15.7,12.4,12.7,18.9,18.2c2.1,13.7,0.2,25.6-11.9,33.2c-2,1.3-3.7,3.1-5.7,4.5c-14,10.1-29.1,2.3-31.6-16.3
	c2.3-1,5.1,2.1,7.3-1.5c-1.1-0.9-2.3-1.6-3.5-2.2c-12-3.9-10.7-11.5-10-20.7c0.3-3.4,2.4-6,4.1-8.8c0.5-0.8,1.3-1.8,0.3-2.8
	c-2.3-0.1-3.8,3.3-7,1.6c-2.7-6.2-6.9-11.9-11.4-17.4c-8.9-10.9-9-13.7-1.7-26.1c1.1-1.9,2.2-3.7,3.4-5.5
	c8.8-13.7,13.6-28.7,12.3-45.7c-0.3-4-0.3-8.2,3.3-11.3c9,1.9,18.3,1.9,27.3-0.1c4.6,2.8,5.9,8.5,10.1,10.8c2.3-2.9-0.8-5.9,1.2-9.4
	l17.9,21.1l17.9-21.1c2,3.4-1.1,6.4,1.2,9.4c4.3-2.2,5.6-8,10.1-10.8c9,1.9,18.3,2,27.3,0.1c3.6,3.1,3.6,7.3,3.3,11.3
	c-1.3,17,3.5,31.9,12.3,45.7C268.8,143.7,269.9,145.5,271,147.4L271,147.4z M235.9,138L235.9,138c2.6-5,5.5-9.4,6.8-17.3
	c-7,4.4-12.3,7.8-17.6,11.2c-4.9,3.2-9.6,7.4-16.5,2.5c2.9,15.7,5.5,29.7,8,43.6c0.6-11.8-2.5-22.9,0.2-34.7
	C223.2,141.5,229.6,139.7,235.9,138L235.9,138z M155.1,138L155.1,138c6.3,1.7,12.7,3.5,19.2,5.3c2.7,11.8-0.4,22.9,0.2,34.7l8-43.6
	c-6.9,4.9-11.6,0.7-16.5-2.5c-5.3-3.4-10.7-6.8-17.6-11.2C149.6,128.6,152.4,133,155.1,138L155.1,138z M210,240.9L210,240.9
	c-3.4-4.5-8.7-7.3-14.4-7.6h-0.2c-5.7,0.3-11,3.1-14.4,7.6c-5.2,6.6-11.2,11.4-19.8,12c0.8,9.3,6.9,14.3,12,18.2
	c7.9,6,17.5,9.4,22.2,21.8v0.4l0,0c0-0.1,0.1-0.1,0.1-0.2c0,0.1,0,0.1,0.1,0.2l0,0v-0.4c4.8-12.4,14.3-15.8,22.2-21.8
	c5-3.8,11.2-8.9,12-18.2C221.2,252.2,215.2,247.5,210,240.9L210,240.9z"/>
<path class="st1" d="M515.3,178.8c-2,0.3-3.9,0.5-5.9,0.6c-1.9,0.1-4.2,0.2-6.9,0.3s-5.7,0.1-9.2,0.1c-7,0-12.7-0.8-16.9-2.3
	c-3.7-1.3-6.9-3.8-9-7.1c-2.2-3.5-3.7-8.2-4.4-14c-0.8-7.5-1.2-15.1-1.1-22.6l-0.4-53.4c0-17.6-9.4-26.9-27.2-26.9h-2.7l0.4,2.7
	c0.1,0.8,0.3,2,0.4,3.6s0.2,3.5,0.2,6c0,2.5,0.1,6,0.2,10.2v56.5c0,13.4,0.8,24.8,2.5,33.9c1.7,9.4,4.8,17,9.1,22.7
	c4.5,5.9,10.8,10.3,18,12.5c7.3,2.4,16.6,3.6,27.7,3.6c4.2,0.1,8.5-0.6,12.4-2.2c3.2-1.3,6.1-3.1,8.6-5.4c2.3-2.1,4.1-4.6,5.3-7.4
	c1.1-2.5,1.7-5.2,1.7-7.9v-4L515.3,178.8z"/>
<path class="st1" d="M563,54.5c-8.9,0-15.9,2-20.7,5.9s-7.5,10.7-7.5,19.8v102.3c-0.1,4.2-0.2,7.7-0.2,10.3s-0.1,4.6-0.2,6.1
	s-0.3,2.8-0.4,3.6l-0.4,2.7h2.7c8.8,0,15.7-2,20.5-6s7.3-10.8,7.3-19.8L564.5,77c0-4.3,0-7.6,0.1-10.1s0.2-4.6,0.3-6.1
	s0.3-2.8,0.4-3.6l0.4-2.7L563,54.5z"/>
<path class="st1" d="M724.4,96.2c-3.7-9.1-9.2-17.3-16.1-24.2c-6.6-6.4-14.5-11.5-23.1-14.8c-17.3-6.7-36.4-6.7-53.7,0
	c-8.6,3.3-16.5,8.4-23.1,14.8c-7,6.9-12.5,15.1-16.1,24.2c-4,9.6-6,20.8-6,33.4s2,23.8,6,33.5c3.7,9.2,9.1,17.5,16.1,24.4
	c6.6,6.5,14.5,11.6,23.1,14.9c17.3,6.7,36.4,6.7,53.7,0c8.6-3.3,16.5-8.4,23.1-14.9c7-7,12.5-15.3,16.1-24.4c4-9.6,6-20.9,6-33.5
	S728.4,105.8,724.4,96.2z M698.8,129.6c0,9.6-1.2,18-3.5,24.9c-2,6.2-5.2,12-9.4,17.1c-3.5,4.2-8,7.6-13,9.9c-9.3,4.2-20,4.2-29.4,0
	c-5-2.3-9.4-5.7-12.9-9.9c-4.2-5.1-7.3-10.9-9.4-17.1c-2.4-6.9-3.5-15.3-3.5-24.9s1.2-17.8,3.5-24.7c2-6.2,5.2-11.9,9.4-16.9
	c3.6-4.2,8-7.5,13-9.7c9.3-4.2,20-4.2,29.4,0c5,2.3,9.4,5.6,13,9.7c4.2,5,7.4,10.7,9.3,16.9C697.7,111.8,698.8,120.1,698.8,129.6z"
	/>
<path class="st1" d="M870.3,54.5c-8.9,0-16,2-20.8,6s-7.6,10.7-7.6,19.7l0.5,79.8c-4.2-9.8-8.1-19.1-11.8-27.8
	c-2.1-4.9-4.3-9.9-6.5-15c-2.2-4.8-4.2-9.5-6-13.7s-3.5-8.1-4.9-11.2s-2.5-5.3-3.2-6.9c-5.2-10.4-11.3-18.2-18-23.2
	s-16.1-7.7-27.3-7.7c-1.5,0-3,0.1-4.4,0.2c-1.3,0.1-2.6,0.4-3.8,0.7c-1.3,0.3-2.4,0.6-3.4,0.9l-1.7,0.5v122.8
	c0,9.1,2.6,15.8,7.6,19.8s11.9,5.9,20.8,5.9h2.7l-0.4-2.7c-0.1-0.8-0.3-2-0.4-3.6s-0.2-3.6-0.3-6.2s-0.2-6.1-0.3-10.3l-0.7-89.7
	c4.6,10.5,8.9,20.5,13,29.9c2.3,5.3,4.6,10.7,7,16.2c2.4,5.5,4.6,10.6,6.7,15.4c2.1,4.9,4.1,9.3,5.8,13.1s3.2,6.9,4.3,9
	c4.6,9.7,10.2,17,16.5,21.7s14.8,7.2,25,7.2c1.5,0,3-0.1,4.4-0.2c1.3-0.1,2.6-0.4,3.8-0.7c1.3-0.3,2.4-0.6,3.4-0.9l1.6-0.5
	l-0.2-125.7c0-4.3,0-7.6,0.1-10.1s0.2-4.6,0.3-6.1s0.3-2.9,0.4-3.9l0.4-2.6L870.3,54.5z"/>
<path class="st1" d="M999.5,154.7c-1.1-6.2-3.5-12-7-17.2c-3.8-5.7-9.5-11.4-17-16.9c-5.5-3.9-11.3-7.4-17.3-10.4
	c-6-3-11.5-6-16.3-9c-4.2-2.5-8-5.5-11.3-9c-2.3-2.4-3.1-5.9-2-9c0.4-1.4,1.2-2.7,2.3-3.7c1.2-1.1,2.7-1.9,4.2-2.5
	c1.7-0.7,3.5-1.1,5.3-1.3c1.8-0.3,3.6-0.4,5.4-0.4h0.1c3.8-0.1,7.5,0.3,11.2,1.1c4.1,0.8,8.2,2,12.1,3.5c1.4,0.6,2.6,1.1,3.8,1.6
	s2.2,0.9,3.4,1.4c2,1,4.2,1.6,6.4,1.7c2.1,0,4.1-0.7,5.8-1.9c1.8-1.3,3.3-2.9,4.6-4.7l1.5-2.3l-1.2-1.3c-3.9-4.3-8.4-7.9-13.4-10.9
	c-5.2-3.1-10.7-5.6-16.3-7.6c-7.3-2.4-14.9-3.6-22.6-3.5c-5.1,0-10.2,0.7-15.2,2.1c-5,1.4-9.7,3.6-13.8,6.7
	c-4.2,3.1-7.7,7-10.3,11.5c-2.9,5-4.6,10.6-5,16.3c-0.7,8.5,1.6,16.9,6.5,23.9c4.9,7.3,12.5,14,22.6,20c6,3.4,11.7,6.5,17,9.5
	c4.7,2.6,9.3,5.4,13.7,8.5c3.3,2.3,6.3,5,8.8,8.2c1.9,2.5,2.8,5.5,2.7,8.6c0,2-0.5,3.9-1.3,5.7c-0.9,2.1-2.3,4-4.1,5.4
	c-2.3,1.9-4.9,3.3-7.8,4.2c-3.9,1.2-8,1.8-12.1,1.7h-2.2c-4.3-0.2-8.6-0.8-12.8-1.7c-3.1-0.7-6.2-1.7-9.2-2.9
	c-1.3-0.7-2.6-1.3-3.7-1.8c-1.1-0.5-2.3-0.9-3.5-1.3c-1-0.4-2-0.8-3-1.1c-1.1-0.4-2.3-0.5-3.5-0.5c-2,0-3.9,0.6-5.5,1.6l-0.2,0.1
	c-1.8,1.3-3.3,3-4.5,4.8l-1.5,1.6l0.5,1.4c0.7,1.8,2.2,3.8,4.9,6.5c3,2.9,6.4,5.4,10,7.4c4.6,2.6,9.6,4.7,14.7,6.2
	c6.3,1.8,12.8,2.7,19.3,2.6c10.1,0.1,20.2-1.8,29.6-5.8c9-3.9,16-9.6,20.5-16.9c2.7-4.2,4.7-8.8,6-13.7
	C1000.1,165.7,1000.4,160.1,999.5,154.7z"/>
<path class="st1" d="M437.4,244.9h2.4l13.9,20.4l13.9-20.4h2.4v34.6h-2.6v-30l-13.7,19.9h-0.2l-13.7-19.9v30h-2.5L437.4,244.9z"/>
<path class="st1" d="M495.9,244.6h2.5l16.1,34.8h-2.8l-4.4-9.7h-20.4l-4.4,9.7h-2.7L495.9,244.6z M506.1,267.4l-9.1-20l-9.1,20
	H506.1z"/>
<path class="st1" d="M524.2,244.9h14.5c4.3,0,7.7,1.3,9.7,3.4c1.7,1.7,2.6,4,2.6,6.4v0.1c0,5.8-4.3,9.1-10.1,9.9l11.4,14.8h-3.3
	l-11-14.3h-11.3v14.3h-2.6L524.2,244.9z M538.4,262.8c5.8,0,10.1-2.9,10.1-7.9v-0.1c0-4.6-3.7-7.6-9.9-7.6h-11.8v15.5L538.4,262.8z"
	/>
<path class="st1" d="M562.4,244.9h2.6v22.7l22-22.7h3.5l-15.1,15.3l15.8,19.3h-3.4L573.5,262l-8.6,8.7v8.8h-2.6V244.9z"/>
<path class="st1" d="M600.1,244.9h24.6v2.4h-22v13.6h19.8v2.4h-19.8v13.9H625v2.4h-24.9V244.9z"/>
<path class="st1" d="M645.3,247.3h-12v-2.4h26.7v2.4h-12v32.2h-2.6L645.3,247.3z"/>
<path class="st1" d="M670.5,244.9h2.6v34.6h-2.6V244.9z"/>
<path class="st1" d="M686.1,244.9h2.4l23.8,30.1v-30.1h2.5v34.6h-1.9l-24.3-30.7v30.7h-2.5V244.9z"/>
<path class="st1" d="M726.1,262.3v-0.1c0-9.3,6.8-17.9,17.1-17.9c4.6-0.2,9.2,1.5,12.6,4.5l-1.7,1.9c-3-2.8-7-4.3-11.1-4.1
	c-8.4,0-14.3,7.1-14.3,15.4v0.1c0,8.9,5.6,15.6,14.8,15.6c4,0,7.9-1.4,11-4v-9.9H743v-2.4h14v13.3c-3.8,3.3-8.6,5.1-13.5,5.2
	C732.5,280,726.1,272,726.1,262.3z"/>
<path class="st1" d="M786.1,244.9h11.5c10.9,0,18.4,7.5,18.4,17.2v0.1c0,9.7-7.5,17.3-18.4,17.3h-11.5V244.9z M788.6,247.3v29.8h8.9
	c9.6,0,15.7-6.6,15.7-14.8v-0.1c0-8.2-6.1-14.9-15.7-14.9H788.6z"/>
<path class="st1" d="M827.5,244.9h2.6v34.6h-2.6V244.9z"/>
<path class="st1" d="M841.6,262.3v-0.1c0-9.3,6.8-17.9,17.1-17.9c4.6-0.2,9.2,1.5,12.6,4.5l-1.7,1.9c-3-2.8-7-4.3-11.1-4.1
	c-8.4,0-14.3,7.1-14.3,15.4v0.1c0,8.9,5.6,15.6,14.8,15.6c4,0,7.9-1.4,11-4v-9.9h-11.5v-2.4h14v13.3c-3.7,3.3-8.5,5.1-13.5,5.2
	C848.1,280,841.6,272,841.6,262.3z"/>
<path class="st1" d="M884.7,244.9h2.6v34.6h-2.6V244.9z"/>
<path class="st1" d="M909.9,247.3h-12v-2.4h26.7v2.4h-12v32.2H910L909.9,247.3z"/>
<path class="st1" d="M943.5,244.6h2.5l16.1,34.8h-2.8l-4.4-9.7h-20.4l-4.4,9.7h-2.7L943.5,244.6z M953.7,267.4l-9.1-20l-9.1,20
	H953.7z"/>
<path class="st1" d="M971.8,244.9h2.6v32.2h20.3v2.4h-22.9V244.9z"/>
</svg>
